<svg version="1.2" preserveAspectRatio="none" xmlns="http://www.w3.org/2000/svg" xmlns:xlink="http://www.w3.org/1999/xlink" class="ng-element" data-id="3bc3337e4632489baeb897b28d153f72" viewBox="0 0 400 250" style="overflow: visible; width: 400px; height: 250px; opacity: 1; mix-blend-mode: normal; transform: rotate(0deg) translate(526px, 172px) rotate(0deg); pointer-events: all;"><defs><path id="path-1603206693001330" d="M0 15.000000000000002 C0 6.7157287530000005 6.715728753000001 0 15.000000000000002 0 C15.000000000000002 0 385.0000000000002 0 385.0000000000002 0 C393.2842712470002 0 400.0000000000002 6.715728753000001 400.0000000000002 15.000000000000002 C400.0000000000002 15.000000000000002 400.0000000000002 235 400.0000000000002 235 C400.0000000000002 243.284271247 393.2842712470002 250 385.0000000000002 250 C385.0000000000002 250 15.000000000000002 250 15.000000000000002 250 C6.7157287530000005 250 0 243.284271247 0 235 C0 235 0 15.000000000000002 0 15.000000000000002 Z"></path><linearGradient id="gradient-1603206693029513" x1="0%" y1="50%" x2="100%" y2="50%"><stop offset="0%" stop-color="rgba(117,127,154,1)" stop-opacity="1"></stop><stop offset="100%" stop-color="rgba(215,221,232,1)" stop-opacity="1"></stop></linearGradient></defs><g transform="translate(0, 0)"><path d="M0 15.000000000000002 C0 6.7157287530000005 6.715728753000001 0 15.000000000000002 0 C15.000000000000002 0 385.0000000000002 0 385.0000000000002 0 C393.2842712470002 0 400.0000000000002 6.715728753000001 400.0000000000002 15.000000000000002 C400.0000000000002 15.000000000000002 400.0000000000002 235 400.0000000000002 235 C400.0000000000002 243.284271247 393.2842712470002 250 385.0000000000002 250 C385.0000000000002 250 15.000000000000002 250 15.000000000000002 250 C6.7157287530000005 250 0 243.284271247 0 235 C0 235 0 15.000000000000002 0 15.000000000000002 Z" style="stroke-width: 0; stroke: rgb(140, 140, 140); stroke-linecap: butt; stroke-linejoin: miter; fill: url(&quot;#gradient-1603206693029513&quot;);"></path></g></svg>